<?xml version="1.0" encoding="UTF-8"?><svg id="Ebene_2" xmlns="http://www.w3.org/2000/svg" viewBox="0 0 182.3 171.52"><g id="Ebene_2-2"><g><path d="M182.3,94.11c-3.79,0-7.62-.31-11.36,.11-2.49,.28-3.33-.75-4.3-2.6-2.1-4.01-4.38-7.93-6.63-11.86-.96-1.68-2.56-1.77-4.42-1.54-.08,1.25-.23,2.47-.23,3.69,.02,3.56,.05,7.12,.19,10.67,.05,1.33-.32,1.77-1.69,1.73-3.61-.1-7.22-.03-11.09-.03V53.7c2.84,0,5.73,0,8.61,0,4.5,0,9-.13,13.5,0,4.08,.12,8.31,.3,11.41,3.38,1.33,1.33,2.42,3.33,2.72,5.17,.37,2.29,.19,4.84-.43,7.09-.92,3.37-3.47,5.48-6.76,6.65-.16,.06-.28,.19-.66,.46,.78,.61,1.52,1.1,2.17,1.69,2.29,2.07,3.52,4.85,4.98,7.48,1.36,2.45,2.66,4.93,3.99,7.4v1.08Zm-26.83-23.93c2.74-.24,5.37-.37,7.97-.74,1.84-.27,3.11-2.08,3.04-3.85-.05-1.36-1.41-2.68-3.26-2.89-2.54-.29-5.1-.41-7.75-.61v8.09Z"/><path d="M134.02,123.17c2.06,2.38,3.96,4.71,6,6.91,2.56,2.76,5.22,5.43,7.86,8.11,1.81,1.84,3.68,3.63,5.51,5.46,2.99,3,5.98,6,8.97,9.01,1.66,1.66,3.31,3.33,4.97,4.99,3.78,3.77,3.83,8.48,.3,11.64-3.38,3.03-7.39,3-10.74-.29-11.16-10.93-22.15-22.03-33.17-33.1-.96-.97-1.54-1.19-2.68-.17-4.62,4.14-10.27,6.51-15.78,9.18-4.47,2.17-9.2,3.32-13.92,4.46-3.72,.9-7.62,1.28-11.46,1.43-4.38,.17-8.8,.07-13.16-.34-8.11-.77-15.77-3.24-23.19-6.61-5.61-2.55-10.68-5.89-15.57-9.54-1.87-1.4-3.54-3.11-5.14-4.83-2.8-3.02-5.64-6.03-8.15-9.29-1.98-2.57-3.56-5.48-5.21-8.29-2.89-4.91-5.07-10.15-6.4-15.69-1.14-4.78-2.58-9.59-2.84-14.45-.29-5.41-.39-10.89,.5-16.38,.88-5.42,2.14-10.69,3.96-15.83,1.09-3.07,2.65-5.97,4.09-8.9,1.15-2.32,2.28-4.68,3.71-6.83,1.76-2.63,3.81-5.06,5.75-7.56,3.93-5.06,8.93-9.02,14.02-12.76,3.62-2.66,7.85-4.48,11.86-6.59,4.74-2.49,9.88-3.91,15.04-5.11,3.61-.84,7.36-1.09,11.06-1.45,2.63-.26,5.3-.45,7.94-.33,2.82,.12,5.65,.48,8.42,1.02,4.55,.89,9.18,1.65,13.54,3.15,4.38,1.51,8.57,3.67,12.66,5.9,3.52,1.92,6.97,4.08,10.07,6.6,3.52,2.87,6.58,6.29,9.89,9.42,1.56,1.47,2.48,3.2,2.89,5.3,.48,2.47-1.09,5.94-3.19,7.36-3.46,2.35-7.8,1.45-10.33-1.47-3.56-4.11-7.4-7.94-11.84-11.12-4.58-3.28-9.53-5.86-14.86-7.69-6.47-2.22-13.16-3.22-19.99-3.21-4.79,.01-9.58,.41-14.22,1.6-7.19,1.84-13.99,4.63-19.91,9.25-2.77,2.16-5.72,4.15-8.23,6.59-4.11,4-7.38,8.71-10.31,13.65-3.35,5.64-5.39,11.75-6.49,18.16-.55,3.22-.75,6.52-.78,9.79-.03,3.55,.11,7.13,.55,10.65,.36,2.87,1.19,5.7,1.98,8.49,.56,1.98,1.24,3.96,2.16,5.8,1.53,3.08,3.28,6.05,4.96,9.04,2.64,4.69,6.27,8.62,10.28,12.07,3.44,2.96,7.3,5.48,11.16,7.89,2.56,1.59,5.35,2.93,8.21,3.86,4.11,1.34,8.32,2.63,12.59,3.16,5.68,.71,11.4,.59,17.17-.27,6.39-.95,12.42-2.78,18.06-5.77,6.16-3.26,12.06-7.03,16.73-12.31,2.52-2.85,4.74-5.99,6.87-9.16,2.72-4.06,5.9-4.48,10.46-3,1.68,.54,3.08,2.25,3.7,4.36,1.07,3.62-.38,6.49-2.34,9.22-1.34,1.87-2.94,3.55-3.99,4.8Z"/><path d="M50.4,74.05c.42-5.08,1.47-9.79,4.62-13.92,1.67-2.19,3.76-3.76,6.13-4.89,6.03-2.87,12.34-2.75,18.64-1.12,5.07,1.31,8.8,4.59,11,9.24,1.35,2.84,2.23,6.05,1.99,9.28-.28,3.71-.39,7.57-1.5,11.06-1.48,4.65-4.92,8.02-9.59,9.75-4.68,1.74-9.58,1.86-14.48,1.2-7.2-.98-12.44-4.72-14.9-11.67-1.01-2.85-1.3-5.94-1.92-8.93Zm29.76-1.26c-.47-1.77-.73-4.31-1.8-6.44-1.94-3.85-8.6-4.55-11.75-1.54-2.04,1.95-2.51,4.55-2.82,7.12-.22,1.75,.14,3.57,.18,5.35,.07,3.67,2.35,6.77,5.78,7.6,4.24,1.03,8.61-.54,9.46-5.19,.37-2.04,.58-4.11,.96-6.91Z"/><path d="M136.66,65.98c-3.16,.65-6.3,1.08-9.28,2-1.74,.54-2.31-.16-3-1.37-1.87-3.27-5.44-4.68-8.86-3.36-2.19,.84-3.74,2.54-4.31,4.78-1.13,4.41-1.23,8.89,.36,13.21,1.64,4.46,7.74,5.01,10.63,2.32,1.35-1.26,2.22-3.13,3.02-4.86,.53-1.14,.9-1.45,2.16-1,2.84,1.03,5.77,1.81,8.64,2.79,.38,.13,.9,.89,.82,1.22-1.46,5.81-5.54,11.28-11.98,12.57-6.46,1.29-12.98,1.22-18.85-2.2-2.05-1.2-3.86-3.26-5.1-5.34-4.81-8.04-4.53-16.47-.72-24.75,1.95-4.24,5.63-6.59,10.21-7.87,4.34-1.21,8.7-1.46,12.99-.7,6.97,1.24,11.33,5.66,13.27,12.55Z"/></g></g></svg>