<svg width="400" height="200" xmlns="http://www.w3.org/2000/svg">

 <g>
  <title>Layer 1</title>
  <path fill-rule="evenodd" fill="#bc0c34" d="m17.8625,20.69165c-0.208,0.542 -0.208,158.103 0,158.646c0.143,0.374 2.548,0.415 24.524,0.415l24.366,0l0,-44.182c0,-24.299 0.094,-44.239 0.209,-44.31c0.348,-0.216 0.665,0.109 3.166,3.246c1.323,1.659 2.55,3.194 2.728,3.411c1.551,1.897 8.831,10.962 9.237,11.503c0.286,0.38 1.328,1.695 2.314,2.922c0.986,1.226 1.933,2.406 2.103,2.623c1.066,1.356 2.428,3.036 2.553,3.147c0.08,0.072 1.494,1.843 3.142,3.935c1.648,2.091 3.117,3.934 3.264,4.094c0.147,0.161 0.621,0.745 1.054,1.298c0.668,0.853 4.974,6.231 5.975,7.46c0.177,0.216 1.955,2.43 3.954,4.918c1.998,2.489 3.732,4.525 3.853,4.525c0.122,0 2.913,-3.378 6.203,-7.506c3.29,-4.128 6.103,-7.64 6.25,-7.803c0.147,-0.164 1.618,-2.009 3.268,-4.101c1.651,-2.092 3.124,-3.939 3.274,-4.105c0.15,-0.166 1.094,-1.347 2.099,-2.623c1.005,-1.277 2.952,-3.734 4.328,-5.461c1.375,-1.727 2.641,-3.32 2.812,-3.541c0.256,-0.33 3.439,-4.316 4.617,-5.781c0.175,-0.217 1.673,-2.106 3.329,-4.196c1.656,-2.091 3.073,-3.86 3.148,-3.932c0.075,-0.073 0.606,-0.722 1.181,-1.443c0.575,-0.721 1.254,-1.54 1.509,-1.82c0.254,-0.28 0.462,-0.604 0.462,-0.721c0,-0.117 0.177,-0.213 0.393,-0.213c0.347,0 0.401,5.16 0.459,44.262l0.066,44.262l16.132,0.058c14.117,0.05 16.049,0.01 15.475,-0.319c-0.361,-0.207 -0.867,-0.38 -1.126,-0.385c-1.622,-0.032 -10.735,-4.225 -11.989,-5.517c-0.072,-0.074 -0.78,-0.627 -1.573,-1.228c-5.594,-4.239 -9.305,-9.949 -10.707,-16.477c-0.728,-3.389 -0.834,-4.317 -0.834,-7.283c0,-11.166 5.383,-21.197 15.737,-29.327c2.76,-2.166 2.822,-2.898 0.49,-5.751c-8.288,-10.139 -9.752,-21.935 -4.118,-33.179c3.166,-6.319 9.958,-12.334 15.963,-14.137c4.266,-1.281 5.457,-1.497 9.042,-1.642c2.02,-0.082 4.292,-0.034 5.049,0.106l1.378,0.256l0,-22.26l0,-22.259l-24.498,0l-24.497,0l-0.749,0.862c-0.411,0.474 -1.102,1.317 -1.535,1.873c-0.433,0.555 -1.269,1.614 -1.857,2.351c-0.94,1.177 -2.566,3.232 -5.225,6.602c-1.969,2.494 -3.329,4.213 -3.621,4.574c-0.175,0.217 -3.617,4.584 -7.651,9.705c-4.033,5.122 -7.455,9.446 -7.604,9.61c-0.15,0.165 -0.744,0.915 -1.321,1.668c-1.29,1.683 -4.468,5.714 -5.067,6.428c-0.243,0.288 -1.266,1.587 -2.274,2.885c-1.008,1.298 -1.974,2.537 -2.148,2.754c-1.594,1.99 -2.177,2.729 -2.97,3.765c-1.215,1.586 -1.245,1.577 -3.404,-1.077c-2.349,-2.886 -1.82,-2.223 -6.43,-8.065c-2.163,-2.741 -4.131,-5.22 -4.374,-5.509c-0.243,-0.288 -1.281,-1.587 -2.306,-2.885c-1.026,-1.298 -2.186,-2.763 -2.577,-3.256c-0.392,-0.492 -2.169,-2.735 -3.95,-4.983c-1.781,-2.249 -3.571,-4.502 -3.977,-5.007c-0.407,-0.505 -1.582,-1.98 -2.611,-3.278c-1.029,-1.299 -2.013,-2.538 -2.187,-2.755c-0.173,-0.216 -1.666,-2.105 -3.317,-4.196c-1.651,-2.092 -3.068,-3.863 -3.149,-3.935c-0.081,-0.072 -0.494,-0.603 -0.919,-1.18c-0.424,-0.577 -0.843,-1.108 -0.93,-1.18c-0.087,-0.073 -1.089,-1.312 -2.225,-2.754c-1.136,-1.443 -2.192,-2.71 -2.347,-2.816c-0.643,-0.441 -48.869,-0.231 -49.039,0.214m201.545,54.533l0,54.444l5.18,6.353c2.849,3.495 5.377,6.59 5.618,6.878c0.241,0.289 5.107,6.274 10.814,13.301c5.706,7.027 10.551,12.988 10.766,13.246c0.214,0.258 2.056,2.535 4.093,5.06c4.667,5.785 3.8,5.246 8.432,5.246l3.884,0l0,-25.653c0,-19.602 0.075,-25.727 0.315,-25.967c0.236,-0.237 3.594,-0.315 13.497,-0.315l13.182,0l0.937,1.377c1.39,2.043 3.191,4.837 3.372,5.229c0.086,0.19 3.117,4.889 6.734,10.443c3.618,5.554 8.242,12.695 10.278,15.869c2.035,3.174 4.39,6.81 5.234,8.081c0.843,1.271 1.533,2.422 1.533,2.558c0,0.135 0.118,0.246 0.263,0.246c0.144,0 0.262,0.116 0.262,0.257c0,0.142 1.118,1.971 2.484,4.066l2.484,3.809l26.762,0c18.48,0 26.762,-0.086 26.762,-0.275c0,-0.151 -1.299,-2.129 -2.886,-4.394c-5.363,-7.654 -9.132,-13.007 -9.565,-13.583c-0.236,-0.316 -1.654,-2.328 -3.149,-4.473c-1.495,-2.144 -2.822,-4.016 -2.947,-4.161c-0.126,-0.144 -1.287,-1.779 -2.579,-3.634c-1.292,-1.854 -2.586,-3.703 -2.874,-4.108c-9.041,-12.684 -12.016,-17.068 -11.759,-17.325c0.133,-0.133 1.181,-0.485 2.328,-0.781c2.038,-0.527 4.642,-1.35 5.824,-1.841c0.325,-0.135 0.856,-0.347 1.18,-0.472c7.719,-2.964 14.35,-8.984 17.445,-15.839c0.718,-1.59 0.871,-1.993 1.639,-4.32c1.481,-4.489 2.103,-8.006 2.634,-14.893c0.375,-4.869 0.202,-31.543 -0.218,-33.705c-0.155,-0.793 -0.414,-2.269 -0.576,-3.278c-2.726,-16.983 -14.195,-28.108 -31.743,-30.792c-0.938,-0.143 -2.531,-0.408 -3.541,-0.588c-1.421,-0.253 -15.422,-0.347 -61.967,-0.418l-60.132,-0.091l0,54.443m108.056,-12.463c1.327,0.945 1.349,1.175 1.267,12.969l-0.077,10.965l-0.909,0.759l-0.91,0.759l-29.254,-0.067l-29.255,-0.067l-0.068,-12.59c-0.037,-6.924 -0.012,-12.737 0.057,-12.918c0.248,-0.645 58.238,-0.459 59.149,0.19m-132.056,21.959c-5.644,0.554 -9.404,7.686 -6.852,12.996c3.139,6.528 11.757,7.223 15.612,1.259c4.377,-6.772 -0.707,-15.046 -8.76,-14.255m52.877,28.539c9.479,2.685 12.658,15.344 5.704,22.716c-6.523,6.915 -17.506,4.983 -21.611,-3.802c-4.927,-10.542 4.768,-22.069 15.907,-18.914m-56.62,20.518c-1.423,0.265 -6.632,5.926 -7.868,8.55c-3.111,6.605 0.042,13.281 7.021,14.867c0.794,0.18 1.785,0.431 2.203,0.557c3.374,1.019 11.065,-1.458 14.515,-4.674c1.245,-1.161 1.285,-1.09 -4.603,-8.332c-8.651,-10.64 -9.355,-11.325 -11.268,-10.968" id="svg_5"/>
 </g>
</svg>