<?xml version="1.0" encoding="UTF-8"?>
<svg xmlns="http://www.w3.org/2000/svg" viewBox="6 6 45 45" width="1240" height="1240">
	<rect style="fill:#01ffff;" x="0" y="0" width="56.7" height="56.7"/>
	<rect style="fill:#0100ff;" x="6" y="6" width="45" height="45"/>
  <g>
    <path class="cls-1" d="M49.6,37.4v5h-.8v-2.1h-1.3v2.1h-.8v-5h.8v2.2h1.3v-2.2h.8Z"/>
  </g>
  
  <g>
    <path class="cls-1" d="M45.3,26.4c2.7-.6,3.8-2,3.8-5.5v-1.4c0-2.1-.4-3.3-1.3-4.3-.9-.9-2.2-1.3-4.3-1.3h-13v12.7c1.5,1.9,3.1,3.8,4.6,5.7,0,.1.1.1.2.2h1v-6h3.2l3.9,6h6.3l-4.3-6.1ZM33.4,27.8c-.8,0-1.5-.7-1.5-1.6s.7-1.6,1.5-1.6,1.5.7,1.5,1.6-.6,1.6-1.5,1.6ZM43.3,21.4c0,.2-.1.4-.4.4h-6.7v-3.1h6.7c.2,0,.4.1.4.4v2.2Z"/>
    <g>
      <path class="cls-1" d="M28.5,21.5q-.1,0,0,0t0,0h-.1q0-.1-.1-.1h-.3c-.6,0-1.1.5-1.1,1.1h0c0,.6.5,1.1,1,1.1h.7c.2-.3.4-.6.4-.9-.1-.6-.3-1-.5-1.2h0Z"/>
      <path class="cls-1" d="M24.3,26.3c.3-.3.6-.7,1-.9.3-.2.3-.3.1-.6-1.6-1.8-.9-4.8,1.4-5.6.6-.2,1.2-.2,1.7-.1v-5.2h-5.8l-5.1,6.4-5.1-6.4h-5.7v18.6h5.8v-10.5l5.1,6.3,5.1-6.3v10.4h4.1c-.9-.2-1.7-.6-2.4-1.2-1.4-1.2-1.4-3.4-.2-4.9Z"/>
      <path class="cls-1" d="M29.1,29c-.4-.5-.8-.9-1.1-1.4q-.6-.7-1.3,0c-.3.3-.5.6-.5,1s0,.3.1.5c.3.6.8.7,1.3.8h.6q.1,0,.2-.1h0c.1,0,.1-.1.2-.1h0c.2-.1.4-.2.6-.3,0-.2,0-.3-.1-.4Z"/>
    </g>
  </g>
</svg>