<?xml version="1.0" encoding="utf-8"?>
<svg version="1.1" id="Ebene_1" width="56mm" height="36mm" viewBox="0 0 156 100" xmlns="http://www.w3.org/2000/svg">
  <style type="text/css">
	.st0{fill:none;stroke:#000000;stroke-miterlimit:10;}
  </style>
  <rect y="0.525" class="st0" width="155" height="99" style="" x="0.526"/>
  <line class="st0" x1="0.5" y1="71" x2="155.5" y2="71"/>
  <line class="st0" x1="39.7" y1="70.9" x2="39.7" y2="99.2"/>
  <line class="st0" x1="79.4" y1="70.9" x2="79.4" y2="99.2"/>
  <line class="st0" x1="119.1" y1="70.9" x2="119.1" y2="99.2"/>
  <g>
    <path d="M21,29.5c0,0.4-0.1,0.7-0.5,0.9c0.4,0.1,0.5,0.5,0.5,0.9v0.4c0,0.7-0.4,1.2-1.3,1.2h-1.4V28h1.4c0.9,0,1.3,0.5,1.3,1.2 V29.5z M19.1,28.7v1.4h0.6c0.4,0,0.6-0.2,0.6-0.5v-0.4c0-0.3-0.1-0.5-0.6-0.5H19.1z M20.3,31.3c0-0.3-0.2-0.5-0.6-0.5h-0.6v1.5h0.6 c0.4,0,0.6-0.2,0.6-0.5V31.3z"/>
    <path d="M24.2,31.7h-1.1l-0.3,1.3H22l1.1-4.9h1l1.1,4.9h-0.8L24.2,31.7z M24,31l-0.1-0.4c-0.2-1.1-0.3-1.5-0.3-1.9 c0,0.3-0.1,0.8-0.3,1.9L23.2,31H24z"/>
    <path d="M28.9,28v3.8c0,0.7-0.4,1.2-1.4,1.2s-1.4-0.5-1.4-1.2V28H27v3.7c0,0.3,0.2,0.5,0.6,0.5c0.4,0,0.6-0.2,0.6-0.5V28H28.9z"/>
    <path d="M31.9,29.1c0-0.7,0.4-1.2,1.4-1.2s1.4,0.5,1.4,1.2v0.4h-0.8v-0.3c0-0.3-0.2-0.5-0.6-0.5c-0.4,0-0.6,0.2-0.6,0.5v2.6 c0,0.3,0.2,0.5,0.6,0.5c0.4,0,0.6-0.2,0.6-0.5v-0.8h-0.5v-0.7h1.3v2.7h-0.7v-0.4c-0.1,0.1-0.3,0.5-0.8,0.5c-0.8,0-1.1-0.5-1.1-1.2 V29.1z"/>
    <path d="M37.1,30.7c-0.2-0.7-0.4-1.1-0.4-1.1s0,0.4,0,1.1v2.3H36V28h0.8l0.6,1.8c0.2,0.6,0.3,1.1,0.3,1.1s0.1-0.5,0.3-1.1l0.6-1.8 h0.8v4.9h-0.7v-2.3c0-0.7,0-1.1,0-1.1s-0.2,0.5-0.4,1.1l-0.3,1h-0.7L37.1,30.7z"/>
    <path d="M43.7,29.5c0,0.4-0.1,0.7-0.5,0.9c0.4,0.1,0.5,0.5,0.5,0.9v0.4c0,0.7-0.4,1.2-1.3,1.2H41V28h1.4c0.9,0,1.3,0.5,1.3,1.2 V29.5z M41.8,28.7v1.4h0.6c0.4,0,0.6-0.2,0.6-0.5v-0.4c0-0.3-0.1-0.5-0.6-0.5H41.8z M43,31.3c0-0.3-0.2-0.5-0.6-0.5h-0.6v1.5h0.6 c0.4,0,0.6-0.2,0.6-0.5V31.3z"/>
    <path d="M47.9,28v4.9h-0.8v-2.1h-1.3v2.1h-0.8V28h0.8v2.2h1.3V28H47.9z"/>
  </g>
  <rect x="6" y="25.1" width="41.9" height="0.6"/>
  <g>
    <g>
      <g>
        <path d="M43.7,17.1c2.7-0.6,3.7-2,3.7-5.4v-1.4c0-2.1-0.4-3.2-1.3-4.2c-0.9-0.9-2.2-1.3-4.2-1.3H29.1v12.5c1.5,1.9,3,3.7,4.5,5.6 c0,0.1,0.1,0.1,0.2,0.2h1v-5.9h3.1l3.8,5.9h6.2L43.7,17.1z M32,18.5c-0.8,0-1.5-0.7-1.5-1.6c0-0.9,0.7-1.6,1.5-1.6 c0.9,0,1.5,0.7,1.5,1.6C33.5,17.8,32.9,18.5,32,18.5z M41.7,12.2c0,0.2-0.1,0.4-0.4,0.4h-6.6v-3h6.6c0.2,0,0.4,0.1,0.4,0.4V12.2z "/>
      </g>
    </g>
    <g>
      <path d="M27.2,12.3C27.1,12.3,27.1,12.3,27.2,12.3C27.1,12.3,27.1,12.3,27.2,12.3c-0.1-0.1-0.1-0.1-0.1-0.1c0,0,0,0,0,0 c0,0,0,0-0.1,0c0,0,0,0,0,0c0,0,0,0-0.1,0c0,0,0,0,0,0c0,0,0,0,0,0c0,0,0,0-0.1,0c0,0,0,0,0,0c0,0,0,0-0.1,0c0,0,0,0,0,0 c-0.6,0-1.1,0.5-1.1,1.1v0v0c0,0.6,0.5,1.1,1,1.1c0,0,0.1,0,0.1,0c0,0,0,0,0,0c0,0,0,0,0.1,0c0,0,0,0,0,0c0,0,0,0,0,0 c0,0,0,0,0.1,0c0,0,0,0,0,0c0,0,0,0,0.1,0c0,0,0,0,0,0c0,0,0,0,0.1,0c0,0,0,0,0,0c0,0,0,0,0.1,0c0,0,0,0,0,0c0,0,0,0,0.1-0.1 c0,0,0,0,0,0v0c0.2-0.2,0.4-0.5,0.4-0.8C27.6,12.9,27.4,12.5,27.2,12.3C27.2,12.3,27.2,12.3,27.2,12.3z"/>
      <path d="M23.1,17c0.3-0.3,0.6-0.7,1-0.9c0.3-0.2,0.3-0.3,0.1-0.6c-1.6-1.8-0.9-4.7,1.4-5.5c0.6-0.2,1.2-0.2,1.7-0.1V4.8h-5.7 l-5,6.3l-5-6.3H6v18.3h5.7V12.8l5,6.2l5-6.2v10.2h4c-0.9-0.2-1.7-0.6-2.4-1.2C21.9,20.6,21.9,18.5,23.1,17z"/>
      <path d="M27.8,19.7c-0.4-0.5-0.8-0.9-1.1-1.4c-0.6-0.7-0.6-0.7-1.3,0c-0.3,0.3-0.5,0.6-0.5,1c0,0.2,0,0.3,0.1,0.5 c0.3,0.6,0.8,0.7,1.3,0.8c0,0,0,0,0,0c0.1,0,0.2,0,0.2,0c0,0,0,0,0.1,0c0.1,0,0.1,0,0.2,0c0,0,0,0,0.1,0c0.1,0,0.1,0,0.2-0.1 c0,0,0,0,0,0c0.1,0,0.1-0.1,0.2-0.1c0,0,0,0,0,0v0c0.2-0.1,0.4-0.2,0.6-0.3C27.9,19.9,27.9,19.8,27.8,19.7z"/>
    </g>
  </g>
  <text style="font-family: Arial, sans-serif; font-size: 10px; white-space: pre;" x="3.729" y="53.854">EINGANG</text>
  <text style="font-family: Arial, sans-serif; font-size: 14px; white-space: pre;" x="60" y="53.854">DATE</text>
</svg>