<?xml version="1.0" encoding="utf-8"?>
<svg width="65mm" height="26mm" viewBox="0 0 187 74.8" xmlns="http://www.w3.org/2000/svg">
    <style>
      .cls-1 {
        fill: none;
        stroke: #ba182c;
      }
      .cls-2, .cls-3, .cls-4 {
        font-family: Arial, sans-serif; 
        font-weight: 400;
      }
      .cls-3 {
        fill: #ba182c;
      }
      .cls-2, .cls-4 {
        fill: #182cba;
      }
      .cls-2 {
        font-size: 8px;
      }
      .cls-3, .cls-4 {
        font-size: 10px;
      }
    </style>
    <rect class="cls-1" x=".6" y=".5" width="186" height="74"/>
    <text class="cls-3" x="6" y="18">KT: <tspan class="cls-4">mrba:costCarrierNumber</tspan></text>
    <text class="cls-2" x="6" y="26">mrba:projectName</text>
    <text class="cls-3" x="6" y="38">Pr&#252;ffrist: <tspan class="cls-4">REVIEW_DAYS</tspan></text>
    <text class="cls-3" x="6" y="50">Zahlungskond.:</text>
    <text class="cls-4" x="90" y="50">
    <tspan x="90" dy="0">PAYMENT_CONDITIONS_1</tspan>
    <tspan x="90" dy="1.0em">PAYMENT_CONDITIONS_2</tspan>
    <tspan x="90" dy="1.0em">PAYMENT_CONDITIONS_3</tspan>
  </text>
  
  <g transform="translate(160 0) scale(0.5 0.5)" style="fill: #ba182c;">
    <rect x="6" y="25.1" width="41.9" height="0.6"/>
    <g>
      <g>
        <path d="M43.7,17.1c2.7-0.6,3.7-2,3.7-5.4v-1.4c0-2.1-0.4-3.2-1.3-4.2c-0.9-0.9-2.2-1.3-4.2-1.3H29.1v12.5c1.5,1.9,3,3.7,4.5,5.6 c0,0.1,0.1,0.1,0.2,0.2h1v-5.9h3.1l3.8,5.9h6.2L43.7,17.1z M32,18.5c-0.8,0-1.5-0.7-1.5-1.6c0-0.9,0.7-1.6,1.5-1.6 c0.9,0,1.5,0.7,1.5,1.6C33.5,17.8,32.9,18.5,32,18.5z M41.7,12.2c0,0.2-0.1,0.4-0.4,0.4h-6.6v-3h6.6c0.2,0,0.4,0.1,0.4,0.4V12.2z "/>
      </g>
    </g>
    <g>
      <path d="M27.2,12.3C27.1,12.3,27.1,12.3,27.2,12.3C27.1,12.3,27.1,12.3,27.2,12.3c-0.1-0.1-0.1-0.1-0.1-0.1c0,0,0,0,0,0 c0,0,0,0-0.1,0c0,0,0,0,0,0c0,0,0,0-0.1,0c0,0,0,0,0,0c0,0,0,0,0,0c0,0,0,0-0.1,0c0,0,0,0,0,0c0,0,0,0-0.1,0c0,0,0,0,0,0 c-0.6,0-1.1,0.5-1.1,1.1v0v0c0,0.6,0.5,1.1,1,1.1c0,0,0.1,0,0.1,0c0,0,0,0,0,0c0,0,0,0,0.1,0c0,0,0,0,0,0c0,0,0,0,0,0 c0,0,0,0,0.1,0c0,0,0,0,0,0c0,0,0,0,0.1,0c0,0,0,0,0,0c0,0,0,0,0.1,0c0,0,0,0,0,0c0,0,0,0,0.1,0c0,0,0,0,0,0c0,0,0,0,0.1-0.1 c0,0,0,0,0,0v0c0.2-0.2,0.4-0.5,0.4-0.8C27.6,12.9,27.4,12.5,27.2,12.3C27.2,12.3,27.2,12.3,27.2,12.3z"/>
      <path d="M23.1,17c0.3-0.3,0.6-0.7,1-0.9c0.3-0.2,0.3-0.3,0.1-0.6c-1.6-1.8-0.9-4.7,1.4-5.5c0.6-0.2,1.2-0.2,1.7-0.1V4.8h-5.7 l-5,6.3l-5-6.3H6v18.3h5.7V12.8l5,6.2l5-6.2v10.2h4c-0.9-0.2-1.7-0.6-2.4-1.2C21.9,20.6,21.9,18.5,23.1,17z"/>
      <path d="M27.8,19.7c-0.4-0.5-0.8-0.9-1.1-1.4c-0.6-0.7-0.6-0.7-1.3,0c-0.3,0.3-0.5,0.6-0.5,1c0,0.2,0,0.3,0.1,0.5 c0.3,0.6,0.8,0.7,1.3,0.8c0,0,0,0,0,0c0.1,0,0.2,0,0.2,0c0,0,0,0,0.1,0c0.1,0,0.1,0,0.2,0c0,0,0,0,0.1,0c0.1,0,0.1,0,0.2-0.1 c0,0,0,0,0,0c0.1,0,0.1-0.1,0.2-0.1c0,0,0,0,0,0v0c0.2-0.1,0.4-0.2,0.6-0.3C27.9,19.9,27.9,19.8,27.8,19.7z"/>
    </g>
  </g>
</svg>